  0
SECTION
  2
HEADER
  9
$ACADVER
  1
AC1009
  9
$INSBASE
 10
0.0
 20
0.0
 30
0.0
  9
$EXTMIN
 10
0.0
 20
0.0
 30
0.0
  9
$EXTMAX
 10
0.0
 20
0.0
 30
0.0
  0
ENDSEC
  0
SECTION
  2
TABLES
  0
TABLE
  2
VPORT
 70
0
  0
ENDTAB
  0
TABLE
  2
LTYPE
 70
1
  0
LTYPE
  2
CONTINUOUS
 70
0
  3
Solid line
 72
65
 73
0
 40
0.0
  0
ENDTAB
  0
TABLE
  2
LAYER
 70
1
  0
LAYER
  2
0
 70
64
 62
7
  6
continuous
  0
ENDTAB
  0
TABLE
  2
STYLE
 70
1
  0
STYLE
  2
STANDARD
 70
0
 40
0
 41
1.0
 50
0.0
 71
0
 42
1
 3
ARIAL.TTF
 4

  0
ENDTAB
  0
TABLE
  2
VIEW
 70
0
  0
ENDTAB
  0
ENDSEC
  0
SECTION
  2
BLOCKS
  0
BLOCK
  8
0
  2
SKETCH001
 70
0
 10
0.0
 20
0.0
 30
0.0
  3
SKETCH001
  0
CIRCLE
  8
0
 62
7
 10
6.586389188205913
 20
115.75290133403094
 30
0.0
 40
1.5
  0
CIRCLE
  8
0
 62
7
 10
-6.586389188205912
 20
115.75290133403094
 30
0.0
 40
1.5
  0
POLYLINE
  8
0
 62
7
 70
1
 66
1
 10
0.0
 20
0.0
 30
0.0
  0
VERTEX
  8
0
 10
43.14864224505858
 20
23.064359353945825
 30
0.0
  0
VERTEX
  8
0
 10
41.54864224505984
 20
25.83564064605402
 30
0.0
  0
VERTEX
  8
0
 10
58.86915032074523
 20
35.83564064607101
 30
0.0
  0
VERTEX
  8
0
 10
60.4691503207499
 20
33.0643593539614
 30
0.0
  0
SEQEND
  8
0
  0
POLYLINE
  8
0
 62
7
 70
1
 66
1
 10
0.0
 20
0.0
 30
0.0
  0
VERTEX
  8
0
 10
73.45953137751155
 20
40.564359353980414
 30
0.0
  0
VERTEX
  8
0
 10
71.85953137750751
 20
43.335640646089566
 30
0.0
  0
VERTEX
  8
0
 10
89.18003945318972
 20
53.33564064611492
 30
0.0
  0
VERTEX
  8
0
 10
90.78003945319378
 20
50.56435935400576
 30
0.0
  0
SEQEND
  8
0
  0
POLYLINE
  8
0
 62
7
 70
1
 66
1
 10
0.0
 20
0.0
 30
0.0
  0
VERTEX
  8
0
 10
-43.14864224505858
 20
23.064359353945825
 30
0.0
  0
VERTEX
  8
0
 10
-41.54864224505984
 20
25.83564064605402
 30
0.0
  0
VERTEX
  8
0
 10
-58.86915032074523
 20
35.83564064607101
 30
0.0
  0
VERTEX
  8
0
 10
-60.4691503207499
 20
33.0643593539614
 30
0.0
  0
SEQEND
  8
0
  0
POLYLINE
  8
0
 62
7
 70
1
 66
1
 10
0.0
 20
0.0
 30
0.0
  0
VERTEX
  8
0
 10
-73.45953137751155
 20
40.564359353980414
 30
0.0
  0
VERTEX
  8
0
 10
-71.85953137750751
 20
43.335640646089566
 30
0.0
  0
VERTEX
  8
0
 10
-89.18003945318972
 20
53.33564064611492
 30
0.0
  0
VERTEX
  8
0
 10
-90.78003945319378
 20
50.56435935400576
 30
0.0
  0
SEQEND
  8
0
  0
POLYLINE
  8
0
 62
7
 70
1
 66
1
 10
0.0
 20
0.0
 30
0.0
  0
VERTEX
  8
0
 10
-1.599999999999028
 20
-48.900000000000055
 30
0.0
  0
VERTEX
  8
0
 10
1.5999999999986017
 20
-48.90000000000015
 30
0.0
  0
VERTEX
  8
0
 10
1.6000000000149726
 20
-68.9000000000057
 30
0.0
  0
VERTEX
  8
0
 10
-1.5999999999868422
 20
-68.90000000001004
 30
0.0
  0
SEQEND
  8
0
  0
POLYLINE
  8
0
 62
7
 70
1
 66
1
 10
0.0
 20
0.0
 30
0.0
  0
VERTEX
  8
0
 10
-1.5999999999679346
 20
-83.9000000000153
 30
0.0
  0
VERTEX
  8
0
 10
1.6000000000331767
 20
-83.90000000001126
 30
0.0
  0
VERTEX
  8
0
 10
1.6000000000583725
 20
-103.90000000001825
 30
0.0
  0
VERTEX
  8
0
 10
-1.5999999999427388
 20
-103.90000000002227
 30
0.0
  0
SEQEND
  8
0
  0
CIRCLE
  8
0
 62
7
 10
-96.95175852292152
 20
-63.58043102321288
 30
0.0
 40
1.5
  0
CIRCLE
  8
0
 62
7
 10
-103.53814771112741
 20
-52.1724703108179
 30
0.0
 40
1.5
  0
CIRCLE
  8
0
 62
7
 10
103.53814771112732
 20
-52.17247031081813
 30
0.0
 40
1.5
  0
CIRCLE
  8
0
 62
7
 10
96.9517585229214
 20
-63.58043102321308
 30
0.0
 40
1.5
  0
ENDBLK
  0
ENDSEC
  0
SECTION
  2
ENTITIES
  0
INSERT
  2
SKETCH001
  8
0
 62
7
 10
0.0
 20
0.0
 30
0.0
  0
ENDSEC
  0
EOF
